<svg width="165" height="159" viewBox="0 0 165 159" fill="none" xmlns="http://www.w3.org/2000/svg">
<path opacity="0.3" d="M164.252 76.2758C164.252 91.144 160.2 105.732 152.53 118.477C144.861 131.222 133.862 141.643 120.714 148.625C107.565 155.606 92.7613 158.884 77.889 158.108C63.0167 157.332 48.6362 152.531 36.2882 144.219C23.9403 135.907 14.0901 124.397 7.79327 110.923C1.49639 97.4496 -1.00994 82.5193 0.542805 67.7321C2.09555 52.9449 7.64885 38.8582 16.6077 26.9811C25.5666 15.1041 37.5934 5.88431 51.3996 0.309679L69.6964 45.4756C64.0988 47.7358 59.2225 51.4739 55.5902 56.2894C51.9578 61.105 49.7063 66.8164 49.0767 72.8118C48.4472 78.8072 49.4633 84.8606 52.0164 90.3235C54.5694 95.7864 58.5631 100.453 63.5696 103.823C68.576 107.193 74.4066 109.14 80.4365 109.454C86.4664 109.769 92.4685 108.44 97.7996 105.609C103.131 102.779 107.59 98.5535 110.7 93.3861C113.809 88.2188 115.452 82.3041 115.452 76.2758H164.252Z" fill="#F0A500"/>
</svg>
