<svg width="100" height="18" viewBox="0 0 100 18" fill="none" xmlns="http://www.w3.org/2000/svg">
<path fill-rule="evenodd" clip-rule="evenodd" d="M12.4702 16.2797C11.1659 15.4626 10.2046 12.643 10.2046 9.2921C10.2046 9.16915 10.2051 9.04775 10.2083 8.92687L10.2093 8.92843C6.58087 8.35828 3.95942 6.7962 3.89198 4.94827L3.8816 4.97006C2.99395 6.07352 2.4871 7.34923 2.4871 8.70846C2.4871 12.7083 6.87762 15.9855 12.4468 16.2755L12.4702 16.2797ZM0.809326 9.00002C0.809326 4.52493 6.37906 0.895996 13.2494 0.895996C20.1203 0.895996 25.69 4.52493 25.69 9.00002C25.69 13.4756 20.1203 17.1046 13.2494 17.1046C6.37906 17.1046 0.809326 13.4756 0.809326 9.00002ZM13.2499 2.06535C14.5765 2.06535 15.7048 4.07774 16.123 6.88543L16.124 6.88076C18.705 6.47922 20.5114 5.55266 20.5114 4.47409C20.5114 3.02719 17.2602 1.85524 13.2499 1.85524C9.24019 1.85524 5.98893 3.02719 5.98893 4.47409C5.98893 5.55266 7.79536 6.4787 10.3758 6.88076L10.3774 6.88543C10.7955 4.07774 11.9239 2.06535 13.2499 2.06535ZM14.053 16.275C19.6222 15.985 24.0133 12.7078 24.0133 8.70794C24.0133 7.34871 23.5059 6.07301 22.6188 4.96954L22.6079 4.94775C22.5409 6.79568 19.9195 8.35776 16.2906 8.92791L16.2921 8.92635C16.2947 9.04723 16.2957 9.16863 16.2957 9.29158C16.2957 12.6425 15.3339 15.4621 14.0302 16.2792L14.053 16.275ZM13.2499 7.09347C13.8257 7.09415 14.4013 7.06957 14.9749 7.0198L14.9744 7.02032C14.6994 5.22115 14.0312 3.95063 13.2504 3.95063C12.4697 3.95063 11.802 5.22115 11.5265 7.02032L11.526 7.0198C12.0993 7.06932 12.6745 7.09391 13.2499 7.09347ZM13.2499 13.7579C14.2486 13.7579 15.0636 11.6796 15.1067 9.07369L15.1119 9.07525C13.8734 9.18935 12.627 9.18935 11.3885 9.07525L11.3937 9.07369C11.4368 11.6796 12.2513 13.7579 13.2499 13.7579ZM64.2896 9.00002C64.2896 5.57963 67.063 2.80618 70.4834 2.80618C73.9054 2.80618 76.6783 5.57963 76.6783 9.00002C76.6783 12.4214 73.9048 15.1939 70.4834 15.1939C67.063 15.1939 64.2896 12.4214 64.2896 9.00002ZM70.4834 12.9226C72.3936 12.9226 73.9427 11.166 73.9427 8.9995C73.9427 6.83355 72.3936 5.07693 70.4834 5.07693C68.5732 5.07693 67.0252 6.83355 67.0252 8.9995C67.0252 11.1665 68.5738 12.9226 70.4834 12.9226ZM83.7069 5.38665V14.9127H81.0963V5.38665H81.1057H77.456V3.23315H87.3472V5.38665H83.7069ZM90.5046 12.285L90.5025 12.2876L89.5012 14.9132H86.4523L91.2714 3.23315H94.52L99.338 14.9132H96.2901L95.2889 12.2876L95.2858 12.285H90.5046ZM92.8957 10.3136H94.5382L94.5371 10.3141L92.9066 6.03928H92.8843L91.2537 10.3141L91.2527 10.3136H92.8957ZM35.5979 5.38665V14.9127H32.9878V5.38665H32.9972H29.347V3.23315H39.2387V5.38665H35.5979ZM39.9064 9.00002C39.9064 5.57963 42.6799 2.80618 46.1013 2.80618C49.5222 2.80618 52.2957 5.57963 52.2957 9.00002C52.2957 12.4214 49.5222 15.1939 46.1013 15.1939C42.6799 15.1939 39.9064 12.4214 39.9064 9.00002ZM46.1013 12.9226C48.011 12.9226 49.5601 11.166 49.5601 8.9995C49.5601 6.83355 48.011 5.07693 46.1013 5.07693C44.1911 5.07693 42.6425 6.83355 42.6425 8.9995C42.6425 11.1665 44.1911 12.9226 46.1013 12.9226ZM58.2918 14.9127H59.6153V10.4781L64.1687 3.23315H61.1208L58.2918 8.14246L55.4639 3.23315H52.416L56.9689 10.4781V14.9127H58.2918Z" fill="#CC2229"/>
</svg>
